<svg width="20" height="20" viewBox="0 0 20 20" fill="none" xmlns="http://www.w3.org/2000/svg">
<path d="M7.38478 18.7733V15.7156C7.38478 14.9351 8.02217 14.3023 8.80844 14.3023H11.6826C12.0602 14.3023 12.4223 14.4512 12.6893 14.7163C12.9563 14.9813 13.1063 15.3408 13.1063 15.7156V18.7733C13.1039 19.0978 13.2321 19.4099 13.4624 19.6402C13.6927 19.8705 14.0061 20 14.3329 20H16.2938C17.2096 20.0023 18.0888 19.6428 18.7372 19.0008C19.3856 18.3588 19.75 17.487 19.75 16.5778V7.86686C19.75 7.13246 19.4221 6.43584 18.8546 5.96467L12.184 0.675869C11.0237 -0.251438 9.36111 -0.221498 8.23539 0.746979L1.71701 5.96467C1.12274 6.42195 0.767552 7.12064 0.75 7.86686V16.5689C0.75 18.4639 2.29738 20 4.20617 20H6.12229C6.80123 20 7.353 19.4562 7.35792 18.7822L7.38478 18.7733Z" fill="#262626"/>
</svg>
