<svg width="17" height="16" viewBox="0 0 17 16" fill="none" xmlns="http://www.w3.org/2000/svg">
<path d="M8.75 0C9.81087 0 10.8283 0.421427 11.5784 1.17157C12.3286 1.92172 12.75 2.93913 12.75 4C12.75 5.06087 12.3286 6.07828 11.5784 6.82843C10.8283 7.57857 9.81087 8 8.75 8C7.68913 8 6.67172 7.57857 5.92157 6.82843C5.17143 6.07828 4.75 5.06087 4.75 4C4.75 2.93913 5.17143 1.92172 5.92157 1.17157C6.67172 0.421427 7.68913 0 8.75 0ZM8.75 10C13.17 10 16.75 11.79 16.75 14V16H0.75V14C0.75 11.79 4.33 10 8.75 10Z" fill="#9CA4AB"/>
</svg>
